<?xml version="1.0" standalone="no"?>
<!DOCTYPE svg PUBLIC "-//W3C//DTD SVG 20010904//EN"
 "http://www.w3.org/TR/2001/REC-SVG-20010904/DTD/svg10.dtd">
<svg version="1.0" xmlns="http://www.w3.org/2000/svg"
 width="355.000000pt" height="355.000000pt" viewBox="0 0 355.000000 355.000000"
 preserveAspectRatio="xMidYMid meet">
<metadata>
Created by potrace 1.14, written by Peter Selinger 2001-2017
</metadata>
<g transform="translate(0.000000,355.000000) scale(0.100000,-0.100000)"
fill="#000000" stroke="none">
<path d="M336 2834 c-7 -19 4 -22 97 -26 45 -2 81 -8 85 -15 4 -7 7 -249 7
-539 l0 -527 -45 -4 c-249 -21 -457 -238 -464 -483 -7 -238 154 -449 394 -517
41 -12 192 -14 241 -4 158 33 332 166 531 405 l24 28 53 -72 c51 -69 137 -160
194 -206 75 -61 207 -124 287 -138 19 -3 46 -8 60 -11 37 -8 120 -9 127 -1 11
11 -3 16 -58 21 -151 13 -241 42 -349 112 -69 46 -202 179 -257 259 l-42 61
52 69 c29 38 58 78 64 88 12 22 5 29 93 -84 276 -351 635 -518 1143 -534 440
-13 812 224 951 606 18 51 21 68 11 72 -8 3 -20 -17 -35 -57 -61 -170 -186
-332 -336 -435 -89 -60 -270 -133 -369 -148 -68 -10 -287 -11 -360 0 -247 35
-492 177 -647 377 -35 45 -235 306 -298 389 -125 164 -276 363 -402 528 -76
99 -138 184 -138 189 0 6 77 84 171 174 95 90 217 208 273 263 56 54 111 105
123 113 11 8 50 17 84 21 46 5 65 11 67 23 2 13 -25 15 -237 15 -165 -1 -244
-5 -251 -12 -19 -19 3 -25 98 -28 83 -3 132 -17 132 -40 0 -5 -44 -52 -98
-105 -55 -53 -201 -196 -327 -318 -125 -123 -231 -223 -234 -223 -11 0 -2 663
9 674 6 6 48 12 93 13 45 1 86 2 90 2 5 1 7 9 5 19 -3 16 -26 17 -305 18 -253
2 -303 -1 -307 -12z m565 -911 c67 -87 125 -160 128 -163 3 -3 28 -34 56 -70
27 -36 57 -74 66 -85 106 -127 179 -228 173 -238 -4 -7 -32 -45 -62 -86 l-55
-74 -18 24 c-10 13 -24 35 -31 49 -34 65 -149 220 -206 277 -36 36 -123 98
-164 117 l-38 17 -1 102 c-1 168 2 280 7 289 9 14 17 5 145 -159z m-376 -373
c0 -97 -4 -143 -13 -152 -8 -8 -40 -12 -92 -11 -78 1 -103 -8 -82 -29 16 -16
596 -17 617 -2 29 21 -8 36 -77 32 -35 -3 -78 -1 -95 4 l-33 9 0 129 c0 72 2
130 5 130 9 0 81 -42 114 -68 91 -68 161 -152 254 -303 l65 -106 -46 -59 c-67
-86 -229 -245 -292 -287 -64 -41 -151 -83 -195 -92 -50 -11 -168 -12 -204 -3
-18 6 -43 11 -55 14 -43 8 -145 67 -194 112 -105 98 -155 207 -155 337 -1 175
76 319 220 411 50 33 224 87 248 78 7 -3 10 -54 10 -144z"/>
</g>
</svg>
